<svg width="240" height="240" viewBox="0 0 240 240" fill="none" xmlns="http://www.w3.org/2000/svg">
  <rect width="240" height="240" rx="120" fill="url(#paint0_linear)"/>
  <path d="M34 174C52.6 171.5 74.8 155.2 88.8 156.8C101.7 158.3 115.2 174.3 128 174.3C145.9 174.3 161.2 147.1 177.8 146.8C189.7 146.6 203.6 160.6 212 169.2V240H34V174Z" fill="#A14317"/>
  <circle cx="121" cy="90" r="37" fill="#FFE2CD"/>
  <path d="M86 97C87.9 74.6 101.6 52 123.1 52C146.1 52 156.8 74.8 158 95C151.6 104.9 138.6 111 122 111C104.5 111 91.8 105.8 86 97Z" fill="#3D2419"/>
  <path d="M85 147C96.3 153.3 107.7 156.4 120 156.4C132.7 156.4 144.5 153.4 156 147V194H85V147Z" fill="#F5C7A3"/>
  <path d="M61 73L84 63L104 77L132 52L160 66L185 49" stroke="#FFF4DF" stroke-width="7" stroke-linecap="round" stroke-linejoin="round" opacity="0.9"/>
  <circle cx="61" cy="73" r="5" fill="#FFF4DF"/>
  <circle cx="84" cy="63" r="5" fill="#FFF4DF"/>
  <circle cx="104" cy="77" r="5" fill="#FFF4DF"/>
  <circle cx="132" cy="52" r="5" fill="#FFF4DF"/>
  <circle cx="160" cy="66" r="5" fill="#FFF4DF"/>
  <circle cx="185" cy="49" r="5" fill="#FFF4DF"/>
  <defs>
    <linearGradient id="paint0_linear" x1="31.5" y1="18" x2="206" y2="224.5" gradientUnits="userSpaceOnUse">
      <stop stop-color="#FFE9BF"/>
      <stop offset="0.48" stop-color="#F59C4B"/>
      <stop offset="1" stop-color="#CC5522"/>
    </linearGradient>
  </defs>
</svg>
